<?xml version="1.0" encoding="UTF-8"?>
<svg xmlns="http://www.w3.org/2000/svg" xmlns:xlink="http://www.w3.org/1999/xlink" width="276pt" height="226pt" viewBox="0 0 276 226" version="1.1">
<g id="surface1">
<path style=" stroke:none;fill-rule:nonzero;fill:rgb(83.921569%,9.803922%,9.411765%);fill-opacity:1;" d="M 262.382812 36.953125 C 275.28125 56.300781 273.925781 85.59375 260.535156 104.324219 C 235.234375 150.695312 189.839844 196.398438 139.390625 224.851562 L 137.933594 224.851562 C 84.476562 194.152344 37.921875 145.859375 11.089844 96.773438 C 1.179688 76.957031 2.511719 49.808594 16.441406 32.117188 C 34.34375 7.980469 64.351562 -2.308594 95.84375 2.378906 C 111.625 5.144531 125.332031 11.757812 137.539062 22.789062 C 140.917969 20.789062 144.246094 17.359375 147.847656 14.914062 C 171.074219 -1.371094 209.960938 -3.691406 235.234375 10.546875 C 246.601562 16.394531 256.34375 26.710938 262.382812 36.953125 "/>
<path style="fill:none;stroke-width:0.093;stroke-linecap:butt;stroke-linejoin:miter;stroke:rgb(100%,100%,100%);stroke-opacity:1;stroke-miterlimit:4;" d="M 10.498752 1.497404 C 11.021681 2.281403 10.966711 3.468404 10.423822 4.227395 C 9.397765 6.106431 7.556821 7.958399 5.510728 9.111368 L 5.451798 9.111368 C 3.283725 7.867383 1.395731 5.91047 0.307735 3.921424 C -0.0941652 3.11843 -0.0401455 2.018487 0.524764 1.301443 C 1.250781 0.323382 2.467728 -0.0935481 3.744714 0.0963973 C 4.384712 0.208465 4.94075 0.476447 5.435798 0.923452 C 5.572827 0.842408 5.707797 0.703431 5.853697 0.604501 C 6.795793 -0.0555591 8.372818 -0.149582 9.397765 0.427377 C 9.858754 0.664493 10.253683 1.082373 10.498752 1.497404 Z M 10.498752 1.497404 " transform="matrix(24.658281,0,0,24.678134,3.501639,0)"/>
<path style=" stroke:none;fill-rule:nonzero;fill:rgb(100%,100%,100%);fill-opacity:1;" d="M 261.6875 38.917969 C 276.949219 64.582031 265.902344 96.960938 249.480469 118.800781 C 224.328125 159.171875 184.480469 197.621094 139.777344 223.015625 L 137.925781 223.015625 C 85.304688 193.15625 37.023438 144.023438 12.121094 94.8125 C -0.332031 70.925781 6.742188 41.632812 26.792969 23.097656 C 46.269531 4.046875 76.082031 -0.617188 103.230469 5.699219 C 115.757812 8.882812 127.519531 15.375 136.59375 25.046875 C 137.085938 25.515625 137.925781 25.222656 138.445312 25.222656 C 158.859375 3.011719 193.875 -2.59375 222.851562 6.734375 C 239.46875 12.042969 253.671875 24.875 261.6875 38.917969 "/>
<path style="fill:none;stroke-width:0.093;stroke-linecap:butt;stroke-linejoin:miter;stroke:rgb(100%,100%,100%);stroke-opacity:1;stroke-miterlimit:4;" d="M 10.470554 1.577022 C 11.089483 2.616974 10.641484 3.929022 9.975506 4.81401 C 8.95547 6.450074 7.339475 8.007943 5.52657 9.036973 L 5.451481 9.036973 C 3.317468 7.82702 1.359454 5.836075 0.349556 3.841964 C -0.155472 2.874033 0.131418 1.687032 0.944564 0.935956 C 1.734423 0.163986 2.943449 -0.0250095 4.044436 0.2311 C 4.552474 0.359947 5.029462 0.623021 5.397461 1.0151 C 5.417421 1.033937 5.451481 1.022065 5.47255 1.022065 C 6.300429 0.12204 7.720464 -0.104945 8.895589 0.273047 C 9.569488 0.488002 10.145486 1.007977 10.470554 1.577022 Z M 10.470554 1.577022 " transform="matrix(24.658281,0,0,24.678134,3.501639,0)"/>
<path style=" stroke:none;fill-rule:nonzero;fill:rgb(83.921569%,9.803922%,9.411765%);fill-opacity:1;" d="M 83.777344 79.5 C 81.851562 77.179688 78.796875 75.921875 75.589844 76.738281 C 72.78125 77.179688 70.460938 79.625 69.992188 82.042969 L 69.820312 96.875 L 69.597656 97.246094 L 62.816406 97.34375 L 62.695312 89.175781 C 62.300781 85.054688 63.703125 79.5 58.355469 77.550781 C 56.308594 76.613281 53.496094 76.613281 51.574219 77.550781 C 46.34375 79.96875 47.996094 85.71875 47.726562 90.1875 L 47.726562 118.515625 C 47.875 121.75 47.480469 125.300781 51.054688 127.402344 C 53.101562 128.632812 56.160156 128.785156 58.355469 127.84375 C 60.648438 126.933594 62.300781 124.882812 62.816406 122.785156 L 62.816406 110.59375 L 69.597656 110.472656 L 69.820312 110.59375 L 69.992188 121.625 C 70.214844 123.5 70.734375 125.425781 72.65625 126.683594 C 74.578125 128.214844 77.363281 128.632812 79.929688 127.84375 C 82.496094 126.933594 84.761719 124.636719 84.910156 122.21875 L 84.910156 87.101562 C 84.761719 84.558594 85.429688 81.792969 83.777344 79.5 M 113.242188 56.253906 C 111.863281 54.058594 109.296875 52.328125 106.757812 52.105469 C 103.058594 51.417969 99.730469 52.996094 97.4375 55.539062 C 96.277344 54.402344 94.875 53.488281 93.589844 52.796875 C 90.285156 51.636719 86.042969 51.761719 83.382812 53.933594 C 80.695312 56.007812 79.410156 59.585938 80.449219 62.816406 C 83.011719 70.863281 89.523438 78.6875 97.707031 83.644531 C 101.777344 81.003906 105.746094 76.835938 108.535156 73.035156 C 111.34375 67.976562 116.351562 62.472656 113.242188 56.253906 M 104.464844 90.53125 C 103.824219 89.273438 102.789062 87.917969 101.285156 87.324219 C 99.335938 86.164062 96.277344 86.410156 94.230469 87.101562 C 91.816406 88.261719 90.136719 90.332031 90.015625 92.875 L 90.015625 119.453125 C 89.769531 122.09375 90.285156 124.390625 92.183594 126.019531 C 94.109375 127.84375 96.945312 128.214844 99.484375 127.84375 C 102.269531 127.277344 104.957031 124.882812 104.957031 122.09375 L 104.957031 100.921875 C 104.589844 97.246094 105.625 94.257812 104.464844 90.53125 M 122.070312 109.679688 L 113.761719 109.558594 C 112.75 109.679688 111.34375 109.3125 110.578125 109.78125 C 106.242188 111.507812 108.535156 116.222656 108.039062 119.332031 C 110.210938 123.699219 115.707031 121.40625 119.925781 121.847656 C 121.847656 122.09375 123.230469 121.304688 124.265625 120.023438 C 125.523438 117.605469 124.785156 114.839844 125.027344 112.320312 C 124.636719 111.039062 123.5 110.003906 122.070312 109.679688 M 140.984375 79.15625 C 139.085938 76.613281 134.84375 75.476562 131.785156 77.179688 C 129.371094 78.488281 127.300781 80.539062 127.570312 83.175781 L 127.71875 118.074219 L 128.085938 123.03125 C 128.335938 125.105469 130.921875 127.402344 133.464844 127.84375 C 137.925781 128.3125 143.03125 128.214844 147.738281 127.746094 C 149.8125 127.277344 151.832031 125.894531 152.746094 124.167969 C 153.878906 121.625 153.484375 118.515625 151.4375 116.34375 C 149.292969 114.023438 145.71875 114.371094 142.636719 114.371094 C 142.265625 103.785156 142.511719 93.445312 142.265625 82.929688 C 142.265625 81.574219 141.75 80.4375 140.984375 79.15625 M 171.386719 71.210938 C 170.226562 69.234375 167.9375 67.53125 165.890625 66.9375 C 162.585938 66.027344 158.859375 66.71875 156.445312 69.234375 C 154.003906 71.675781 153.261719 75.476562 154.792969 78.585938 C 156.050781 81.449219 159.5 83.769531 162.808594 83.769531 C 166.160156 83.867188 168.972656 82.042969 170.871094 79.5 C 172.792969 77.304688 172.792969 73.625 171.386719 71.210938 M 208.546875 99.660156 L 220.308594 99.539062 C 219.792969 98.15625 218.113281 97.246094 216.585938 96.675781 C 214.292969 96.085938 211.902344 96.429688 210.078125 97.8125 C 209.582031 98.257812 208.546875 99.070312 208.546875 99.660156 M 234.613281 96.675781 C 232.566406 89.742188 224.796875 84.214844 216.855469 83.398438 C 207.90625 82.734375 199.226562 86.976562 195.132812 93.988281 C 194.121094 95.863281 193.480469 97.8125 192.964844 99.859375 C 192.078125 99.660156 191.066406 100.007812 190.425781 99.660156 L 190.425781 81.792969 L 190.792969 81.449219 L 197.179688 81.449219 C 199.867188 81.105469 202.285156 80.070312 203.6875 77.773438 C 204.972656 75.476562 204.75 72.566406 202.925781 70.617188 C 200.113281 66.71875 194.492188 68.320312 189.929688 67.976562 C 186.304688 68.320312 182.238281 67.410156 179.179688 68.914062 C 176.761719 70.171875 175.085938 72.246094 175.085938 74.785156 L 175.085938 99.660156 C 173.804688 100.351562 172.027344 99.859375 170.378906 100.007812 C 169.984375 95.863281 171.734375 91.59375 168.699219 88.359375 C 166.652344 86.164062 163.84375 85.496094 161.179688 86.164062 C 158.859375 86.976562 156.570312 88.828125 156.050781 91.125 C 155.804688 101.019531 155.804688 111.039062 155.925781 120.835938 C 156.050781 123.230469 157.085938 125.300781 159.132812 126.832031 C 161.179688 128.214844 164.359375 128.214844 166.40625 126.933594 C 171.734375 124.390625 169.859375 118.863281 170.378906 114.023438 L 170.226562 113.828125 L 175.085938 113.828125 L 175.085938 114.714844 L 175.332031 147.441406 C 175.332031 149.710938 175.578125 151.90625 177.503906 153.410156 C 179.304688 155.238281 182.113281 155.707031 184.652344 155.238281 C 187.464844 154.667969 190.03125 152.375 190.425781 149.613281 L 190.425781 117.605469 L 190.546875 113.582031 L 192.964844 113.582031 C 193.605469 114.371094 193.605469 115.652344 194.121094 116.691406 C 196.5625 123.5 204.75 128.882812 212.519531 129.226562 C 218.113281 128.785156 225.265625 131.199219 229.136719 126.933594 C 230.640625 125.105469 231.308594 122.339844 230.542969 120.023438 C 229.507812 117.605469 226.941406 116.097656 224.253906 115.753906 L 211.359375 115.753906 C 210.347656 115.183594 209.3125 114.273438 208.820312 113.457031 L 218.902344 113.457031 C 223.886719 112.890625 230 114.964844 233.082031 110.941406 C 235.375 106.792969 236.410156 101.265625 234.613281 96.675781 M 257.027344 43.421875 C 269.550781 64.59375 261.515625 92.0625 247.953125 110.644531 C 223.8125 150.917969 183.246094 190.058594 139.578125 216.316406 L 137.015625 215.871094 C 86.265625 185.046875 42.546875 139.789062 17.9375 92.332031 C 6.867188 70.171875 13.378906 42.65625 32.808594 25.726562 C 51.941406 8.429688 83.433594 2.949219 108.410156 13.089844 C 119.777344 16.964844 129.371094 25.160156 137.53125 34.390625 L 138.246094 34.09375 C 155.804688 11.585938 185.8125 3.589844 214.734375 10.105469 C 232.171875 14.472656 249.800781 27.898438 257.027344 43.421875 "/>
<path style="fill:none;stroke-width:0.093;stroke-linecap:butt;stroke-linejoin:miter;stroke:rgb(100%,100%,100%);stroke-opacity:1;stroke-miterlimit:4;" d="M 3.255527 3.221475 C 3.177429 3.127452 3.053548 3.076484 2.923489 3.109566 C 2.80943 3.127452 2.715489 3.226541 2.69648 3.324521 L 2.689509 3.92554 L 2.68048 3.940577 L 2.405471 3.944534 L 2.400401 3.613554 C 2.384401 3.446561 2.441431 3.221475 2.22456 3.14249 C 2.141551 3.104501 2.027492 3.104501 1.949393 3.14249 C 1.737433 3.24047 1.804443 3.47347 1.793512 3.654551 L 1.793512 4.802455 C 1.799373 4.933517 1.783373 5.077559 1.928482 5.16256 C 2.011492 5.21242 2.135372 5.218594 2.22456 5.180446 C 2.317392 5.143565 2.384401 5.060464 2.405471 4.975463 L 2.405471 4.481447 L 2.68048 4.47654 L 2.689509 4.481447 L 2.69648 4.928452 C 2.705509 5.004588 2.72642 5.082466 2.804519 5.133435 C 2.882459 5.195484 2.995409 5.21242 3.099488 5.180446 C 3.203567 5.143565 3.295448 5.050492 3.301468 4.952512 L 3.301468 3.529504 C 3.295448 3.426458 3.322379 3.314549 3.255527 3.221475 Z M 4.450454 2.279504 C 4.394534 2.190546 4.290455 2.120425 4.187485 2.111561 C 4.037465 2.083544 3.902496 2.147492 3.809506 2.250537 C 3.762456 2.204476 3.705427 2.167436 3.653467 2.139419 C 3.519447 2.092408 3.347408 2.097473 3.239369 2.185481 C 3.130538 2.269532 3.078419 2.414524 3.120557 2.545428 C 3.224478 2.871501 3.488398 3.188551 3.820436 3.389419 C 3.985505 3.282416 4.146455 3.113523 4.259405 2.959509 C 4.373464 2.754526 4.576553 2.531498 4.450454 2.279504 Z M 4.094495 3.66848 C 4.068515 3.617512 4.026535 3.562586 3.965386 3.538526 C 3.886496 3.491514 3.762456 3.501487 3.679447 3.529504 C 3.581546 3.576515 3.513427 3.660408 3.508517 3.763453 L 3.508517 4.840602 C 3.498536 4.947447 3.519447 5.04052 3.596437 5.106526 C 3.674377 5.180446 3.789545 5.195484 3.892515 5.180446 C 4.005466 5.157495 4.114455 5.060464 4.114455 4.947447 L 4.114455 4.089526 C 4.099564 3.940577 4.141544 3.819487 4.094495 3.66848 Z M 4.808473 4.444566 L 4.471365 4.439501 C 4.430494 4.444566 4.373464 4.429529 4.342415 4.448523 C 4.166415 4.518486 4.259405 4.70954 4.239445 4.835537 C 4.327524 5.012503 4.550414 4.919588 4.721503 4.937474 C 4.799443 4.947447 4.855522 4.915472 4.897502 4.863554 C 4.948512 4.765574 4.918413 4.653506 4.928393 4.551568 C 4.912552 4.499492 4.866453 4.457545 4.808473 4.444566 Z M 5.57552 3.207546 C 5.49853 3.104501 5.326491 3.058439 5.202452 3.127452 C 5.104551 3.180479 5.020433 3.26358 5.031522 3.370424 L 5.037541 4.784568 L 5.052433 4.985436 C 5.062413 5.069486 5.167442 5.16256 5.270412 5.180446 C 5.451481 5.199441 5.65853 5.195484 5.84942 5.176489 C 5.933539 5.157495 6.015439 5.101461 6.052509 5.031497 C 6.098449 4.928452 6.082449 4.802455 5.999439 4.714447 C 5.912469 4.620424 5.767519 4.634511 5.64253 4.634511 C 5.62748 4.205551 5.63746 3.786563 5.62748 3.360452 C 5.62748 3.305526 5.606411 3.259464 5.57552 3.207546 Z M 6.808467 2.885588 C 6.761417 2.805495 6.668427 2.736481 6.585418 2.712421 C 6.451557 2.67554 6.300429 2.703557 6.202528 2.805495 C 6.103518 2.904425 6.073419 3.058439 6.135518 3.184594 C 6.186528 3.300461 6.326409 3.394484 6.460428 3.394484 C 6.596507 3.398441 6.710407 3.324521 6.787556 3.221475 C 6.865496 3.132517 6.865496 2.983569 6.808467 2.885588 Z M 8.315472 4.038557 L 8.79246 4.033492 C 8.77155 3.977458 8.703431 3.940577 8.641491 3.917467 C 8.548501 3.893566 8.451551 3.907495 8.377412 3.963529 C 8.357452 3.981574 8.315472 4.014498 8.315472 4.038557 Z M 9.372419 3.917467 C 9.289568 3.636506 8.97448 3.412529 8.652421 3.379605 C 8.289492 3.352538 7.937493 3.524438 7.771473 3.808565 C 7.730444 3.884543 7.704464 3.963529 7.683553 4.046472 C 7.647434 4.038557 7.606405 4.052487 7.580425 4.038557 L 7.580425 3.314549 L 7.595474 3.300461 L 7.854483 3.300461 C 7.963473 3.286532 8.061532 3.244585 8.118403 3.151512 C 8.170522 3.058439 8.161492 2.940514 8.087512 2.861529 C 7.973453 2.703557 7.745493 2.768455 7.560464 2.754526 C 7.413455 2.768455 7.248544 2.731574 7.124505 2.792515 C 7.026446 2.843484 6.958486 2.927535 6.958486 3.03058 L 6.958486 4.038557 C 6.906526 4.066416 6.834447 4.046472 6.767437 4.052487 C 6.751437 3.884543 6.822407 3.711535 6.699477 3.580472 C 6.616467 3.491514 6.502408 3.464447 6.394527 3.491514 C 6.300429 3.524438 6.207439 3.599467 6.186528 3.69254 C 6.176389 4.093483 6.176389 4.499492 6.181459 4.896478 C 6.186528 4.993508 6.228508 5.077559 6.311518 5.13945 C 6.394527 5.195484 6.523477 5.195484 6.606487 5.143565 C 6.822407 5.04052 6.746526 4.816542 6.767437 4.620424 L 6.761417 4.612509 L 6.958486 4.612509 L 6.958486 4.648441 L 6.968466 5.974577 C 6.968466 6.066542 6.978446 6.1555 7.056387 6.216441 C 7.129416 6.290519 7.243475 6.309514 7.346445 6.290519 C 7.460504 6.267568 7.564425 6.174494 7.580425 6.062585 L 7.580425 4.765574 L 7.585494 4.602537 L 7.683553 4.602537 C 7.709533 4.634511 7.709533 4.68643 7.730444 4.728534 C 7.829453 5.004588 8.161492 5.222551 8.476422 5.23648 C 8.703431 5.218594 8.993489 5.316416 9.150479 5.143565 C 9.211469 5.069486 9.2384 4.957577 9.207509 4.863554 C 9.165528 4.765574 9.06145 4.704475 8.95246 4.690545 L 8.429372 4.690545 C 8.388501 4.667435 8.346363 4.630554 8.326561 4.597472 L 8.735431 4.597472 C 8.93741 4.57452 9.185489 4.658571 9.310479 4.495535 C 9.403468 4.327591 9.445448 4.103455 9.372419 3.917467 Z M 10.281565 1.759528 C 10.789444 2.617449 10.463425 3.730529 9.913407 4.483505 C 8.934401 6.115453 7.289416 7.701498 5.51849 8.765509 L 5.41457 8.747464 C 3.356438 7.498414 1.583453 5.664491 0.585437 3.741609 C 0.136488 2.843484 0.400408 1.728504 1.188524 1.042484 C 1.964442 0.341585 3.241428 0.119507 4.254494 0.530581 C 4.715483 0.687444 5.104551 1.019532 5.435481 1.393567 L 5.464471 1.381537 C 6.176389 0.469482 7.393494 0.145467 8.566402 0.409491 C 9.273409 0.586457 9.988496 1.130492 10.281565 1.759528 Z M 10.281565 1.759528 " transform="matrix(24.658281,0,0,24.678134,3.501639,0)"/>
<path style=" stroke:none;fill-rule:nonzero;fill:rgb(83.921569%,9.803922%,9.411765%);fill-opacity:1;" d="M 262.382812 36.953125 C 275.28125 56.300781 273.925781 85.59375 260.535156 104.324219 C 235.234375 150.695312 189.839844 196.398438 139.390625 224.851562 L 137.933594 224.851562 C 84.476562 194.152344 37.921875 145.859375 11.089844 96.773438 C 1.179688 76.957031 2.511719 49.808594 16.441406 32.117188 C 34.34375 7.980469 64.351562 -2.308594 95.84375 2.378906 C 111.625 5.144531 125.332031 11.757812 137.539062 22.789062 C 140.917969 20.789062 144.246094 17.359375 147.847656 14.914062 C 171.074219 -1.371094 209.960938 -3.691406 235.234375 10.546875 C 246.601562 16.394531 256.34375 26.710938 262.382812 36.953125 "/>
<path style=" stroke:none;fill-rule:nonzero;fill:rgb(100%,100%,100%);fill-opacity:1;" d="M 261.6875 38.917969 C 276.949219 64.582031 265.902344 96.960938 249.480469 118.800781 C 224.328125 159.171875 184.480469 197.621094 139.777344 223.015625 L 137.925781 223.015625 C 85.304688 193.15625 37.023438 144.023438 12.121094 94.8125 C -0.332031 70.925781 6.742188 41.632812 26.792969 23.097656 C 46.269531 4.046875 76.082031 -0.617188 103.230469 5.699219 C 115.757812 8.882812 127.519531 15.375 136.59375 25.046875 C 137.085938 25.515625 137.925781 25.222656 138.445312 25.222656 C 158.859375 3.011719 193.875 -2.59375 222.851562 6.734375 C 239.46875 12.042969 253.671875 24.875 261.6875 38.917969 "/>
<path style=" stroke:none;fill-rule:nonzero;fill:rgb(83.921569%,9.803922%,9.411765%);fill-opacity:1;" d="M 83.777344 79.5 C 81.851562 77.179688 78.796875 75.921875 75.589844 76.738281 C 72.78125 77.179688 70.460938 79.625 69.992188 82.042969 L 69.820312 96.875 L 69.597656 97.246094 L 62.816406 97.34375 L 62.695312 89.175781 C 62.300781 85.054688 63.703125 79.5 58.355469 77.550781 C 56.308594 76.613281 53.496094 76.613281 51.574219 77.550781 C 46.34375 79.96875 47.996094 85.71875 47.726562 90.1875 L 47.726562 118.515625 C 47.875 121.75 47.480469 125.300781 51.054688 127.402344 C 53.101562 128.632812 56.160156 128.785156 58.355469 127.84375 C 60.648438 126.933594 62.300781 124.882812 62.816406 122.785156 L 62.816406 110.59375 L 69.597656 110.472656 L 69.820312 110.59375 L 69.992188 121.625 C 70.214844 123.5 70.734375 125.425781 72.65625 126.683594 C 74.578125 128.214844 77.363281 128.632812 79.929688 127.84375 C 82.496094 126.933594 84.761719 124.636719 84.910156 122.21875 L 84.910156 87.101562 C 84.761719 84.558594 85.429688 81.792969 83.777344 79.5 M 113.242188 56.253906 C 111.863281 54.058594 109.296875 52.328125 106.757812 52.105469 C 103.058594 51.417969 99.730469 52.996094 97.4375 55.539062 C 96.277344 54.402344 94.875 53.488281 93.589844 52.796875 C 90.285156 51.636719 86.042969 51.761719 83.382812 53.933594 C 80.695312 56.007812 79.410156 59.585938 80.449219 62.816406 C 83.011719 70.863281 89.523438 78.6875 97.707031 83.644531 C 101.777344 81.003906 105.746094 76.835938 108.535156 73.035156 C 111.34375 67.976562 116.351562 62.472656 113.242188 56.253906 M 104.464844 90.53125 C 103.824219 89.273438 102.789062 87.917969 101.285156 87.324219 C 99.335938 86.164062 96.277344 86.410156 94.230469 87.101562 C 91.816406 88.261719 90.136719 90.332031 90.015625 92.875 L 90.015625 119.453125 C 89.769531 122.09375 90.285156 124.390625 92.183594 126.019531 C 94.109375 127.84375 96.945312 128.214844 99.484375 127.84375 C 102.269531 127.277344 104.957031 124.882812 104.957031 122.09375 L 104.957031 100.921875 C 104.589844 97.246094 105.625 94.257812 104.464844 90.53125 M 122.070312 109.679688 L 113.761719 109.558594 C 112.75 109.679688 111.34375 109.3125 110.578125 109.78125 C 106.242188 111.507812 108.535156 116.222656 108.039062 119.332031 C 110.210938 123.699219 115.707031 121.40625 119.925781 121.847656 C 121.847656 122.09375 123.230469 121.304688 124.265625 120.023438 C 125.523438 117.605469 124.785156 114.839844 125.027344 112.320312 C 124.636719 111.039062 123.5 110.003906 122.070312 109.679688 M 140.984375 79.15625 C 139.085938 76.613281 134.84375 75.476562 131.785156 77.179688 C 129.371094 78.488281 127.300781 80.539062 127.570312 83.175781 L 127.71875 118.074219 L 128.085938 123.03125 C 128.335938 125.105469 130.921875 127.402344 133.464844 127.84375 C 137.925781 128.3125 143.03125 128.214844 147.738281 127.746094 C 149.8125 127.277344 151.832031 125.894531 152.746094 124.167969 C 153.878906 121.625 153.484375 118.515625 151.4375 116.34375 C 149.292969 114.023438 145.71875 114.371094 142.636719 114.371094 C 142.265625 103.785156 142.511719 93.445312 142.265625 82.929688 C 142.265625 81.574219 141.75 80.4375 140.984375 79.15625 M 171.386719 71.210938 C 170.226562 69.234375 167.9375 67.53125 165.890625 66.9375 C 162.585938 66.027344 158.859375 66.71875 156.445312 69.234375 C 154.003906 71.675781 153.261719 75.476562 154.792969 78.585938 C 156.050781 81.449219 159.5 83.769531 162.808594 83.769531 C 166.160156 83.867188 168.972656 82.042969 170.871094 79.5 C 172.792969 77.304688 172.792969 73.625 171.386719 71.210938 M 208.546875 99.660156 L 220.308594 99.539062 C 219.792969 98.15625 218.113281 97.246094 216.585938 96.675781 C 214.292969 96.085938 211.902344 96.429688 210.078125 97.8125 C 209.582031 98.257812 208.546875 99.070312 208.546875 99.660156 M 234.613281 96.675781 C 232.566406 89.742188 224.796875 84.214844 216.855469 83.398438 C 207.90625 82.734375 199.226562 86.976562 195.132812 93.988281 C 194.121094 95.863281 193.480469 97.8125 192.964844 99.859375 C 192.078125 99.660156 191.066406 100.007812 190.425781 99.660156 L 190.425781 81.792969 L 190.792969 81.449219 L 197.179688 81.449219 C 199.867188 81.105469 202.285156 80.070312 203.6875 77.773438 C 204.972656 75.476562 204.75 72.566406 202.925781 70.617188 C 200.113281 66.71875 194.492188 68.320312 189.929688 67.976562 C 186.304688 68.320312 182.238281 67.410156 179.179688 68.914062 C 176.761719 70.171875 175.085938 72.246094 175.085938 74.785156 L 175.085938 99.660156 C 173.804688 100.351562 172.027344 99.859375 170.378906 100.007812 C 169.984375 95.863281 171.734375 91.59375 168.699219 88.359375 C 166.652344 86.164062 163.84375 85.496094 161.179688 86.164062 C 158.859375 86.976562 156.570312 88.828125 156.050781 91.125 C 155.804688 101.019531 155.804688 111.039062 155.925781 120.835938 C 156.050781 123.230469 157.085938 125.300781 159.132812 126.832031 C 161.179688 128.214844 164.359375 128.214844 166.40625 126.933594 C 171.734375 124.390625 169.859375 118.863281 170.378906 114.023438 L 170.226562 113.828125 L 175.085938 113.828125 L 175.085938 114.714844 L 175.332031 147.441406 C 175.332031 149.710938 175.578125 151.90625 177.503906 153.410156 C 179.304688 155.238281 182.113281 155.707031 184.652344 155.238281 C 187.464844 154.667969 190.03125 152.375 190.425781 149.613281 L 190.425781 117.605469 L 190.546875 113.582031 L 192.964844 113.582031 C 193.605469 114.371094 193.605469 115.652344 194.121094 116.691406 C 196.5625 123.5 204.75 128.882812 212.519531 129.226562 C 218.113281 128.785156 225.265625 131.199219 229.136719 126.933594 C 230.640625 125.105469 231.308594 122.339844 230.542969 120.023438 C 229.507812 117.605469 226.941406 116.097656 224.253906 115.753906 L 211.359375 115.753906 C 210.347656 115.183594 209.3125 114.273438 208.820312 113.457031 L 218.902344 113.457031 C 223.886719 112.890625 230 114.964844 233.082031 110.941406 C 235.375 106.792969 236.410156 101.265625 234.613281 96.675781 M 257.027344 43.421875 C 269.550781 64.59375 261.515625 92.0625 247.953125 110.644531 C 223.8125 150.917969 183.246094 190.058594 139.578125 216.316406 L 137.015625 215.871094 C 86.265625 185.046875 42.546875 139.789062 17.9375 92.332031 C 6.867188 70.171875 13.378906 42.65625 32.808594 25.726562 C 51.941406 8.429688 83.433594 2.949219 108.410156 13.089844 C 119.777344 16.964844 129.371094 25.160156 137.53125 34.390625 L 138.246094 34.09375 C 155.804688 11.585938 185.8125 3.589844 214.734375 10.105469 C 232.171875 14.472656 249.800781 27.898438 257.027344 43.421875 "/>
</g>
</svg>
